<svg width="403" height="403" viewBox="0 0 403 403" fill="none" xmlns="http://www.w3.org/2000/svg">
<rect width="403" height="403" fill="#253240"/>
<path d="M62.9688 176.312H340.031V314.844C340.031 318.184 338.704 321.387 336.343 323.749C333.981 326.111 330.778 327.438 327.438 327.438H75.5625C72.2224 327.438 69.0192 326.111 66.6574 323.749C64.2956 321.387 62.9688 318.184 62.9688 314.844V176.312Z" stroke="#22E18C" stroke-width="25.1875" stroke-linecap="round" stroke-linejoin="round"/>
<path d="M62.9686 176.312L330.586 104.528L317.52 55.8846C317.101 54.2837 316.367 52.7825 315.36 51.4689C314.354 50.1554 313.095 49.0559 311.659 48.2349C310.222 47.4139 308.636 46.8879 306.993 46.6877C305.35 46.4875 303.684 46.6171 302.092 47.069L58.8757 112.242C57.2717 112.662 55.7666 113.396 54.4468 114.4C53.127 115.403 52.0184 116.658 51.1847 118.091C50.351 119.525 49.8086 121.109 49.5885 122.752C49.3685 124.396 49.4753 126.067 49.9026 127.669L62.9686 176.312Z" stroke="#22E18C" stroke-width="25.1875" stroke-linecap="round" stroke-linejoin="round"/>
<path d="M204.806 73.0437L281.942 117.594" stroke="#22E18C" stroke-width="25.1875" stroke-linecap="round" stroke-linejoin="round"/>
<path d="M95.3976 102.482L172.377 147.032" stroke="#22E18C" stroke-width="25.1875" stroke-linecap="round" stroke-linejoin="round"/>
<path d="M148.47 279V220.14H167.28C171.36 220.14 174.96 220.59 178.08 221.49C181.26 222.39 183.75 223.92 185.55 226.08C187.41 228.18 188.34 231.03 188.34 234.63C188.34 237.39 187.62 240 186.18 242.46C184.74 244.86 182.73 246.51 180.15 247.41V247.77C183.39 248.49 186.06 250.02 188.16 252.36C190.32 254.64 191.4 257.76 191.4 261.72C191.4 265.62 190.41 268.86 188.43 271.44C186.51 274.02 183.84 275.94 180.42 277.2C177 278.4 173.13 279 168.81 279H148.47ZM158.91 244.44H166.38C170.46 244.44 173.43 243.69 175.29 242.19C177.15 240.69 178.08 238.68 178.08 236.16C178.08 233.28 177.12 231.24 175.2 230.04C173.28 228.84 170.4 228.24 166.56 228.24H158.91V244.44ZM158.91 270.9H167.73C172.05 270.9 175.38 270.12 177.72 268.56C180.06 266.94 181.23 264.48 181.23 261.18C181.23 258.06 180.09 255.81 177.81 254.43C175.53 252.99 172.17 252.27 167.73 252.27H158.91V270.9ZM202.171 279V220.14H213.961L224.401 248.94C225.061 250.8 225.691 252.72 226.291 254.7C226.951 256.62 227.581 258.54 228.181 260.46H228.541C229.201 258.54 229.831 256.62 230.431 254.7C231.031 252.72 231.631 250.8 232.231 248.94L242.401 220.14H254.281V279H244.651V252.09C244.651 250.23 244.711 248.22 244.831 246.06C245.011 243.84 245.191 241.62 245.371 239.4C245.611 237.18 245.821 235.17 246.001 233.37H245.641L240.871 247.05L231.241 273.51H225.031L215.311 247.05L210.631 233.37H210.271C210.451 235.17 210.631 237.18 210.811 239.4C211.051 241.62 211.231 243.84 211.351 246.06C211.531 248.22 211.621 250.23 211.621 252.09V279H202.171Z" fill="#22E18C"/>
</svg>
